<svg xmlns="http://www.w3.org/2000/svg" viewBox="0 0 198.48 274.32"><defs><style>.cls-1{fill:#fff;}</style></defs><title>Asset 2</title><g id="Layer_2" data-name="Layer 2"><g id="Layer_1-2" data-name="Layer 1"><path d="M198.41,274.43H.17V.35C.77.38,1.36.44,2,.44H196.34c.36,0,.72,0,1.08,0,.68,0,1,.24.9.91,0,.36,0,.72,0,1.08V272.64C198.32,273.24,198.38,273.84,198.41,274.43ZM190,11.87H10.54V263.12H190Z" transform="translate(-0.17 -0.11)"/><path class="cls-1" d="M198.41,274.43c0-.59-.09-1.19-.09-1.79V2.43c0-.36,0-.72,0-1.08.06-.67-.22-1-.9-.91-.36,0-.72,0-1.08,0H2C1.36.44.77.38.17.35.21.27.25.12.29.12c.32,0,.64,0,1,0h197.4q0,136.62,0,273.24A5.21,5.21,0,0,1,198.41,274.43Z" transform="translate(-0.17 -0.11)"/><path class="cls-1" d="M190,11.87V263.12H10.54V11.87ZM94.69,166.15c-1.1.51-2.16.95-3.17,1.5a1,1,0,0,0-.27.92c.68,1.06,1.46,2.05,2.24,3.11l6.41-3.05c-1.14-1.65-2.17-3.1-3.18-4.56a1.13,1.13,0,0,0-1.65-.41c-1,.51-2,.94-3,1.43-1.44.7-2.86,1.42-4.34,2.16,1.53,2.18,2.94,4.16,4.33,6.16a1,1,0,0,0,1.52.39c.92-.48,1.86-.92,2.8-1.36l3.7-1.75.19.3-5.79,5.11a3.67,3.67,0,0,0,.38.53l7,6.3c.54.48,1,.25,1.46-.17,1.16-1,2.34-2.06,3.5-3.1s2.52-2.27,3.85-3.47l-5.87-5.2a1,1,0,0,1,.88,0l5.6,2.71c.6.29,1.18.51,1.68-.19,1.81-2.6,3.63-5.19,5.46-7.81a2.7,2.7,0,0,0-.41-.34c-3-1.46-6.1-2.94-9.18-4.34a1.39,1.39,0,0,0-1.16.44c-.69.87-1.25,1.84-1.9,2.74-.37.52-.83,1-1.25,1.48l-.22-.18c.87-1.92,1.74-3.84,2.73-6-3,0-5.66,0-8.32,0-.18,0-.51.29-.49.37a.92.92,0,0,0,.41.63,3,3,0,0,0,1.16.19c1.51,0,3-.09,4.55-.06.27,0,.8.54.76.65-.41,1-.92,2-1.41,3l-.31-.11a5.82,5.82,0,0,1,.3-1.58c.52-1,0-1.17-.84-1.13s-1.76,0-2.64,0c-1.11,0-1.27.29-.77,1.27s.91,1.93,1.37,2.9l-.31.21c-.24-.3-.49-.6-.72-.92-.79-1.14-1.61-2.27-2.36-3.43a1,1,0,0,0-1.5-.4c-2.76,1.34-5.54,2.63-8.31,4a9.23,9.23,0,0,0-1,.65l.09.46a3.42,3.42,0,0,0,1.28,0c2.07-.92,4.11-1.9,6.17-2.87,2.54-1.2,1.91-1.48,3.62.85,1.11,1.53,2.17,3.09,3.36,4.78-2.56,1.2-5,2.35-7.37,3.43a1.22,1.22,0,0,1-1.1-.32c-1-1.35-2-2.76-3.05-4.28,1.07-.55,2-1.09,3-1.54,3-1.34,2.14-1.41,3.94.92a4.77,4.77,0,0,1,.61.88c.09.22.15.66.05.72-.62.38-1.29.67-2,1C96.2,167.74,96.2,167.74,94.69,166.15Zm10.49-64.73c1.21,1.7,2.34,3.31,3.54,4.87a1.19,1.19,0,0,0,1.09.09c2.32-1,4.63-2.12,6.91-3.25a1,1,0,0,0,.26-.92c-1.29-1.91-2.64-3.78-4-5.65a.94.94,0,0,0-1.42-.35,23.56,23.56,0,0,1-2.26,1.1c-1.42.67-2.84,1.32-4.27,2l-.18-.26,5.87-5.22c-2.65-2.35-5.1-4.57-7.61-6.72a1.24,1.24,0,0,0-1.18,0c-.9.66-1.7,1.44-2.53,2.18l-5,4.54,5.85,5.2a1.56,1.56,0,0,1-1.09-.09c-1.84-.87-3.69-1.72-5.48-2.66-.79-.41-1.19-.25-1.66.45-1.27,1.88-2.62,3.7-3.93,5.56-.49.69-1,1.4-1.49,2.19,3,1.39,5.73,2.67,8.5,4,1.9.91,1.61,1.17,3-.78.82-1.18,1.66-2.36,2.49-3.53l.32.2-2.73,5.94h8.8l0-.46c-2.22-1.1-4.75,0-7.22-.66l1.59-3.34.38.13-.48,2.33H106l-1.73-3.9a1.59,1.59,0,0,1,1,.67c.83,1.17,1.6,2.38,2.48,3.5a1.29,1.29,0,0,0,1.16.39c3-1.37,6.07-2.81,9.09-4.25.17-.08.4-.42.35-.51a1,1,0,0,0-.57-.5,1.86,1.86,0,0,0-.89.24c-2.38,1.12-4.75,2.23-7.11,3.39a1.1,1.1,0,0,1-1.68-.42c-1.29-1.89-2.66-3.73-4.08-5.7.19-.12.32-.22.46-.29,2.29-1.11,4.57-2.25,6.89-3.29.26-.12.9.19,1.14.48.85,1,1.58,2.18,2.41,3.24.57.74.48,1.16-.42,1.49-.67.24-1.29.61-1.94.91-2.64,1.18-2.65,1.19-4.26-1.24a2.83,2.83,0,0,1-.42-1.26c.64-.33,1.23-1.09,2.19-.49a3.72,3.72,0,0,0-.39.36c-.23.33-.7.9-.63,1,.53.6.72,1.88,1.83,1.53a24.71,24.71,0,0,0,3.42-1.63c-.74-1.06-1.37-2-2-2.87a1,1,0,0,0-1.51-.43C109,99.62,107.19,100.45,105.18,101.42ZM32.48,43.31a10.72,10.72,0,0,1,1.21-.76c1.23-.56,2.5-1,3.72-1.64a27,27,0,0,0,4.92-2.65c4.35-3.45,3.43-9.2-1.69-11.27a13.36,13.36,0,0,0-8.82-.43C29,27.36,26.66,29,25.77,32a3.93,3.93,0,0,0,3.86,5.35,3.3,3.3,0,0,0,3.48-3.06c.14-1.9-.6-2.7-2.81-3.05a1.55,1.55,0,0,1-1.06-2.65A4.88,4.88,0,0,1,33.9,27a3.31,3.31,0,0,1,2.91,2.67,17.85,17.85,0,0,1,.37,5.3c-.29,3-2.19,5.26-4.24,7.32-2.46,2.46-5,4.87-7.47,7.28a5.22,5.22,0,0,1-1.14.63l.37.45H44.06l2-11.23-.32-.08c-.3.81-.59,1.61-.89,2.41a2.19,2.19,0,0,1-2.07,1.57C39.41,43.33,36,43.31,32.48,43.31ZM172,227.59l.13.15c-.95.46-1.88.95-2.84,1.38-1.82.83-3.72,1.49-5.46,2.45-2.64,1.47-4.38,3.63-4.14,6.87s2.42,4.87,5.28,5.78a13.61,13.61,0,0,0,7.92.11c2.73-.77,4.95-2.27,5.95-5.09,1.19-3.36-1.2-6.24-4.61-5.62a3.35,3.35,0,0,0-2.67,3.48c.05,1.53.94,2.3,2.72,2.59.54.09,1.33.54,1.42,1a2.37,2.37,0,0,1-.51,1.9,4.61,4.61,0,0,1-4.84,1.25c-1.85-.54-2.54-2.09-2.86-3.81a11,11,0,0,1,3.07-10c2.85-3,5.82-5.81,8.74-8.72.29-.28.55-.57,1-1H161.83c-.16,0-.37-.06-.47,0-.32.25-.78.51-.85.84-.45,2.1-.81,4.23-1.19,6.35-.25,1.38-.48,2.77-.72,4.16l.29.08c.29-.79.58-1.59.88-2.39A2.3,2.3,0,0,1,162,227.6C165.34,227.58,168.66,227.59,172,227.59ZM37.66,64.58c.74,1.07,1.32,2,1.94,2.82.38.51.79,1.07,1.56.71q2.21-1,4.38-2.08c.53-.27.79-.62.33-1.23-.81-1.08-1.58-2.19-2.32-3.31a1.24,1.24,0,0,0-1.9-.44c-1.23.67-2.51,1.25-3.77,1.86l-.27-.32c.3-.23.6-.45.88-.69.82-.7,1.67-1.37,2.41-2.14a1.19,1.19,0,0,0,.1-1.13c-1.5-1.43-3-2.82-4.64-4.14a1.27,1.27,0,0,0-1.21,0c-1.77,1.47-3.47,3-5.3,4.63l3.83,3.49-.22.26c-1.17-.57-2.36-1.1-3.5-1.72-.87-.48-1.45-.54-2.07.45a45.44,45.44,0,0,1-3.12,4.35c-.51.65-.43.9.29,1.22,1.92.87,3.85,1.73,5.71,2.71.75.4,1.06.18,1.44-.4s1-1.36,1.5-2l.34.18c-.34.71-.66,1.43-1,2.13-.51,1-.29,1.4.8,1.42,1.31,0,2.64,0,4,0,.34,0,.67-.32,1-.49a3.86,3.86,0,0,0-1.1-.43c-1.21,0-2.42,0-3.79,0L34.26,69c1.22,1.25,2.54.56,4,.67l-.91-2.25.24-.17c.63.82,1.22,1.66,1.9,2.44.19.22.69.45.91.35,2.07-.92,4.12-1.9,6.15-2.9.2-.1.26-.47.39-.71-.27,0-.59-.16-.81-.06-1.92.9-3.83,1.83-5.87,2.82-1-1.38-2.06-2.72-3-4.12-.11-.17.14-.83.39-1a29.1,29.1,0,0,1,2.95-1.49c1.93-.86,1.93-.84,3.25,1a11,11,0,0,1,.78,1.05c.11.21.14.71,0,.77a11.3,11.3,0,0,1-3.3,1.52c-.46.07-1.14-1.13-1.7-1.76-.08-.08-.09-.21-.19-.47l1.11-.58c0,.53-.09,1,.09,1.27s.76.83,1,.76a5.51,5.51,0,0,0,2-1.1c.13-.11-.36-1-.61-1.47a1.71,1.71,0,0,0-.52-.64c-.22-.16-.6-.36-.79-.27C40.4,63.22,39.07,63.89,37.66,64.58ZM171.46,207.5l.1-.28a8.57,8.57,0,0,1,.85.3c1.11.52,2.21,1.1,3.35,1.58a1.11,1.11,0,0,0,1-.13c1.37-1.83,2.67-3.7,4.09-5.7-2.37-1.13-4.58-2.22-6.84-3.2-.26-.12-.86.22-1.13.51a21.77,21.77,0,0,0-1.49,2l-.33-.17,1.39-3.25c-1.7-.54-5.67-.37-6.25.34a11.93,11.93,0,0,0,1.34.15c.84,0,1.68,0,2.52-.05,1.09,0,1.19.5.74,1.39-1.24-1-2.52-.57-3.87-.42l1,2.19-.27.15c-.5-.7-1-1.37-1.49-2.09a1.34,1.34,0,0,0-2.07-.57c-1,.56-2.09,1-3.13,1.48s-1.94,1-2.91,1.48l.11.41a3.77,3.77,0,0,0,1.13-.08c1.62-.74,3.19-1.59,4.82-2.29a1.46,1.46,0,0,1,1.32.24,38.06,38.06,0,0,1,2.49,3.44.92.92,0,0,1-.16.87c-1.62.82-3.27,1.57-4.91,2.35-.83-1-1.65-2-2.47-3a2.22,2.22,0,0,1-.13-.44l2.22-1.12c1.67-.85,1.64-.79,2.68.81.7,1.07.7,1.1-.58,1.48.19-1-.05-2-.7-2a8.14,8.14,0,0,0-2.44.87,11.31,11.31,0,0,0,.73,1.75c.33.53.79,1.05,1.56.67,1-.51,2.06-1,3.11-1.5.56-.26.57-.54.2-1-.66-.84-1.24-1.74-1.92-2.56a1,1,0,0,0-.91-.33q-2.4,1.05-4.71,2.26a1,1,0,0,0-.26,1c.83,1.25,1.77,2.43,2.63,3.67a.84.84,0,0,0,1.29.31c1.05-.57,2.12-1.1,3.2-1.62a3.27,3.27,0,0,1,.78-.16,19.73,19.73,0,0,1-2.92,2.93c-.55.45-.55.77,0,1.23q2.25,2,4.46,4a.9.9,0,0,0,1.43,0c1.52-1.41,3.09-2.77,4.67-4.12.57-.49.27-.79-.13-1.14C173.54,209.34,172.5,208.42,171.46,207.5Z" transform="translate(-0.17 -0.11)"/><path d="M94.69,166.15c1.51,1.59,1.51,1.59.62,3.57.66-.32,1.33-.61,2-1,.1-.06,0-.5-.05-.72a4.77,4.77,0,0,0-.61-.88c-1.8-2.33-.92-2.26-3.94-.92-1,.45-2,1-3,1.54,1.06,1.52,2,2.93,3.05,4.28a1.22,1.22,0,0,0,1.1.32c2.42-1.08,4.81-2.23,7.37-3.43-1.19-1.69-2.25-3.25-3.36-4.78-1.71-2.33-1.08-2-3.62-.85-2.06,1-4.1,2-6.17,2.87a3.42,3.42,0,0,1-1.28,0l-.09-.46a9.23,9.23,0,0,1,1-.65c2.77-1.33,5.55-2.62,8.31-4a1,1,0,0,1,1.5.4c.75,1.16,1.57,2.29,2.36,3.43.23.32.48.62.72.92l.31-.21c-.46-1-.89-2-1.37-2.9s-.34-1.26.77-1.27c.88,0,1.76,0,2.64,0s1.36.09.84,1.13a5.82,5.82,0,0,0-.3,1.58l.31.11c.49-1,1-2,1.41-3,0-.11-.49-.64-.76-.65-1.52,0-3,.05-4.55.06a3,3,0,0,1-1.16-.19.92.92,0,0,1-.41-.63c0-.08.31-.37.49-.37,2.66,0,5.33,0,8.32,0-1,2.16-1.86,4.08-2.73,6l.22.18c.42-.49.88-1,1.25-1.48.65-.9,1.21-1.87,1.9-2.74a1.39,1.39,0,0,1,1.16-.44c3.08,1.4,6.13,2.88,9.18,4.34a2.7,2.7,0,0,1,.41.34c-1.83,2.62-3.65,5.21-5.46,7.81-.5.7-1.08.48-1.68.19l-5.6-2.71a1,1,0,0,0-.88,0l5.87,5.2c-1.33,1.2-2.58,2.34-3.85,3.47s-2.34,2.05-3.5,3.1c-.46.42-.92.65-1.46.17l-7-6.3a3.67,3.67,0,0,1-.38-.53l5.79-5.11-.19-.3-3.7,1.75c-.94.44-1.88.88-2.8,1.36a1,1,0,0,1-1.52-.39c-1.39-2-2.8-4-4.33-6.16,1.48-.74,2.9-1.46,4.34-2.16,1-.49,2-.92,3-1.43a1.13,1.13,0,0,1,1.65.41c1,1.46,2,2.91,3.18,4.56l-6.41,3.05c-.78-1.06-1.56-2.05-2.24-3.11a1,1,0,0,1,.27-.92C92.53,167.1,93.59,166.66,94.69,166.15Zm22-.07c-.21-.12-.35-.21-.5-.28-2.28-1.11-4.55-2.25-6.87-3.3a1.19,1.19,0,0,0-1.06.4c-1.54,2.07-3,4.17-4.5,6.29-.14.19-.07.53-.1.8l.31.1c.26-.29.54-.55.76-.85,1.2-1.67,2.36-3.38,3.61-5,.28-.36,1-.79,1.29-.66,1.95.81,3.85,1.77,5.86,2.73l-3.86,5.39-4.4-2.12c.51-.74.89-1.35,1.31-1.92,1-1.4,1-1.35,2.69-.63.73.32,1,.63.58,1.4-.07.13.08.4.14.64,1.67-1.24,1.66-1.74,0-2.53a9.77,9.77,0,0,0-1.82-.87,1.64,1.64,0,0,0-1.38.35,31.78,31.78,0,0,0-2.21,2.94c-.44.62-.37,1.05.4,1.39,1.38.59,2.74,1.25,4.08,1.93.72.36,1.11.18,1.56-.48C113.89,169.92,115.24,168.12,116.71,166.08Zm-20.47,10.1c2,1.8,3.82,3.51,5.74,5.13.23.2,1,.06,1.32-.18,1.25-1,2.42-2.09,3.61-3.15.63-.57,1.23-1.16,1.93-1.82-2.3-2-4.43-3.94-6.59-5.8-.23-.19-.65-.15-1-.21l-.11.28,6.52,5.79c-1.61,1.43-3.11,2.79-4.66,4.1a1,1,0,0,1-.94,0c-1.55-1.3-3-2.67-4.55-4,2.79-3.43,3.12-3.48,5.94-1,.09.07.27.12.29.2,0,.24.15.61,0,.73a6.36,6.36,0,0,1-1.67,1.32c-.27.13-.8-.32-1.22-.49a3.76,3.76,0,0,0-.8,0,7.83,7.83,0,0,0,1.35,1.39,1.29,1.29,0,0,0,1.14-.12c.74-.53,1.38-1.21,2.08-1.79.53-.44.55-.77,0-1.24-1-.86-2-1.83-3.07-2.67a1.25,1.25,0,0,0-1.17-.06C99,173.65,97.73,174.86,96.24,176.18Z" transform="translate(-0.17 -0.11)"/><path d="M105.18,101.42c2-1,3.82-1.8,5.58-2.7a1,1,0,0,1,1.51.43c.64.9,1.27,1.81,2,2.87a24.71,24.71,0,0,1-3.42,1.63c-1.11.35-1.3-.93-1.83-1.53-.07-.09.4-.66.63-1a3.72,3.72,0,0,1,.39-.36c-1-.6-1.55.16-2.19.49a2.83,2.83,0,0,0,.42,1.26c1.61,2.43,1.62,2.42,4.26,1.24.65-.3,1.27-.67,1.94-.91.9-.33,1-.75.42-1.49-.83-1.06-1.56-2.2-2.41-3.24-.24-.29-.88-.6-1.14-.48-2.32,1-4.6,2.18-6.89,3.29-.14.07-.27.17-.46.29,1.42,2,2.79,3.81,4.08,5.7a1.1,1.1,0,0,0,1.68.42c2.36-1.16,4.73-2.27,7.11-3.39a1.86,1.86,0,0,1,.89-.24,1,1,0,0,1,.57.5c0,.09-.18.43-.35.51-3,1.44-6,2.88-9.09,4.25a1.29,1.29,0,0,1-1.16-.39c-.88-1.12-1.65-2.33-2.48-3.5a1.59,1.59,0,0,0-1-.67l1.73,3.9h-4.8l.48-2.33-.38-.13-1.59,3.34c2.47.67,5-.44,7.22.66l0,.46h-8.8l2.73-5.94-.32-.2c-.83,1.17-1.67,2.35-2.49,3.53-1.34,2-1,1.69-3,.78-2.77-1.33-5.55-2.61-8.5-4,.53-.79,1-1.5,1.49-2.19,1.31-1.86,2.66-3.68,3.93-5.56.47-.7.87-.86,1.66-.45,1.79.94,3.64,1.79,5.48,2.66a1.56,1.56,0,0,0,1.09.09l-5.85-5.2,5-4.54c.83-.74,1.63-1.52,2.53-2.18a1.24,1.24,0,0,1,1.18,0c2.51,2.15,5,4.37,7.61,6.72L104.87,99l.18.26c1.43-.66,2.85-1.31,4.27-2a23.56,23.56,0,0,0,2.26-1.1.94.94,0,0,1,1.42.35c1.34,1.87,2.69,3.74,4,5.65a1,1,0,0,1-.26.92c-2.28,1.13-4.59,2.22-6.91,3.25a1.19,1.19,0,0,1-1.09-.09C107.52,104.73,106.39,103.12,105.18,101.42ZM93,102.52l.37-1.27-.3-.27a6.87,6.87,0,0,0-1.14,1.35c-.07.15.44.71.79.92a18.24,18.24,0,0,0,2.34,1.17c.29.12.84.18,1,0,1-1.34,2-2.72,3-4.11a5.22,5.22,0,0,0-.73-.54c-1-.47-1.94-.92-2.91-1.37-2.29-1.05-2.29-1.05-3.75,1-1,1.48-2.06,3-3.18,4.57,2.08,1,4,1.91,5.88,2.8,2.13,1,2.14,1,3.52-1s2.56-3.68,3.84-5.52l-.28-.35a3.46,3.46,0,0,0-.92.65c-1,1.3-1.89,2.65-2.83,4-1.51,2.11-1.52,2.13-3.81,1.1-1.4-.62-2.76-1.31-4.17-2,1.11-1.61,2.08-3,3.1-4.46.34-.47.72-1,1.47-.61,1,.5,1.93.95,2.88,1.46.22.13.54.56.49.64-.64,1-1.32,1.87-2,2.77-.09.11-.47.07-.66,0C94.26,103.21,93.64,102.86,93,102.52Zm3.35-8.84a3,3,0,0,0,.33.56c2.06,1.83,4.11,3.67,6.19,5.47a2.71,2.71,0,0,0,.95.28l.14-.32c-2.16-2-4.33-3.89-6.55-5.88l5.16-4.5,5.12,4.51c-1.1,1-2.08,1.92-3.13,2.77a1,1,0,0,1-.93-.07c-.89-.72-1.71-1.52-2.64-2.38a7.16,7.16,0,0,1,1.76-1.45c.54-.21,1.27.1,1.91.18-.54-.67-.81-2-1.89-1.3a24.47,24.47,0,0,0-3,2.59c1.31,1.18,2.5,2.29,3.74,3.33a1.14,1.14,0,0,0,1,.13c1.43-1.19,2.8-2.45,4.31-3.79l-6.32-5.62Z" transform="translate(-0.17 -0.11)"/><path d="M32.48,43.31c3.55,0,6.93,0,10.3,0a2.19,2.19,0,0,0,2.07-1.57c.3-.8.59-1.6.89-2.41l.32.08-2,11.23H24.7l-.37-.45a5.22,5.22,0,0,0,1.14-.63c2.51-2.41,5-4.82,7.47-7.28,2.05-2.06,4-4.3,4.24-7.32a17.85,17.85,0,0,0-.37-5.3A3.31,3.31,0,0,0,33.9,27a4.88,4.88,0,0,0-4.66,1.6,1.55,1.55,0,0,0,1.06,2.65c2.21.35,2.95,1.15,2.81,3.05a3.3,3.3,0,0,1-3.48,3.06A3.93,3.93,0,0,1,25.77,32c.89-3,3.19-4.62,6.05-5.42a13.36,13.36,0,0,1,8.82.43c5.12,2.07,6,7.82,1.69,11.27a27,27,0,0,1-4.92,2.65c-1.22.6-2.49,1.08-3.72,1.64A10.72,10.72,0,0,0,32.48,43.31Z" transform="translate(-0.17 -0.11)"/><path d="M172,227.59c-3.31,0-6.63,0-9.94,0a2.3,2.3,0,0,0-2.26,1.65c-.3.8-.59,1.6-.88,2.39l-.29-.08c.24-1.39.47-2.78.72-4.16.38-2.12.74-4.25,1.19-6.35.07-.33.53-.59.85-.84.1-.07.31,0,.47,0h18.43c-.44.47-.7.76-1,1-2.92,2.91-5.89,5.75-8.74,8.72a11,11,0,0,0-3.07,10c.32,1.72,1,3.27,2.86,3.81a4.61,4.61,0,0,0,4.84-1.25,2.37,2.37,0,0,0,.51-1.9c-.09-.42-.88-.87-1.42-1-1.78-.29-2.67-1.06-2.72-2.59a3.35,3.35,0,0,1,2.67-3.48c3.41-.62,5.8,2.26,4.61,5.62-1,2.82-3.22,4.32-5.95,5.09a13.61,13.61,0,0,1-7.92-.11c-2.86-.91-5-2.5-5.28-5.78s1.5-5.4,4.14-6.87c1.74-1,3.64-1.62,5.46-2.45,1-.43,1.89-.92,2.84-1.38Z" transform="translate(-0.17 -0.11)"/><path d="M37.66,64.58c1.41-.69,2.74-1.36,4.1-2,.19-.09.57.11.79.27a1.71,1.71,0,0,1,.52.64c.25.5.74,1.36.61,1.47a5.51,5.51,0,0,1-2,1.1c-.26.07-.8-.41-1-.76s-.06-.74-.09-1.27l-1.11.58c.1.26.11.39.19.47.56.63,1.24,1.83,1.7,1.76a11.3,11.3,0,0,0,3.3-1.52c.11-.06.08-.56,0-.77a11,11,0,0,0-.78-1.05c-1.32-1.83-1.32-1.85-3.25-1A29.1,29.1,0,0,0,37.59,64c-.25.15-.5.81-.39,1,.95,1.4,2,2.74,3,4.12,2-1,3.95-1.92,5.87-2.82.22-.1.54,0,.81.06-.13.24-.19.61-.39.71-2,1-4.08,2-6.15,2.9-.22.1-.72-.13-.91-.35-.68-.78-1.27-1.62-1.9-2.44l-.24.17.91,2.25c-1.41-.11-2.73.58-4-.67l-.37,1.25c1.37,0,2.58,0,3.79,0a3.86,3.86,0,0,1,1.1.43c-.34.17-.67.47-1,.49-1.31,0-2.64,0-4,0-1.09,0-1.31-.44-.8-1.42.37-.7.69-1.42,1-2.13l-.34-.18c-.5.68-1,1.34-1.5,2s-.69.8-1.44.4c-1.86-1-3.79-1.84-5.71-2.71-.72-.32-.8-.57-.29-1.22a45.44,45.44,0,0,0,3.12-4.35c.62-1,1.2-.93,2.07-.45,1.14.62,2.33,1.15,3.5,1.72l.22-.26L29.85,59.1c1.83-1.61,3.53-3.16,5.3-4.63a1.27,1.27,0,0,1,1.21,0C38,55.81,39.5,57.2,41,58.63a1.19,1.19,0,0,1-.1,1.13c-.74.77-1.59,1.44-2.41,2.14-.28.24-.58.46-.88.69l.27.32c1.26-.61,2.54-1.19,3.77-1.86a1.24,1.24,0,0,1,1.9.44c.74,1.12,1.51,2.23,2.32,3.31.46.61.2,1-.33,1.23q-2.17,1.06-4.38,2.08c-.77.36-1.18-.2-1.56-.71C39,66.54,38.4,65.65,37.66,64.58Zm-.8-2.43,3.42-3c-1.41-1.25-2.66-2.41-4-3.47a1.23,1.23,0,0,0-1.16,0c-1.12.88-2.15,1.87-3.23,2.79-.57.49-.52.86.05,1.34,1.23,1,2.41,2.14,3.63,3.21a5,5,0,0,0,.77.48l.25-.33-4.49-4.07c1.09-1,2.05-1.86,3.06-2.68a1,1,0,0,1,1-.12c1.08.87,2.1,1.82,3.2,2.81-.75.69-1.3,1.25-1.93,1.72a1,1,0,0,1-.93.1,14.35,14.35,0,0,1-1.68-1.63.9.9,0,0,1,.31-.42c.6-.28,1.22-.51,2-.81l-1-.82c-.62.56-1.11,1.08-1.68,1.5s-.52.77,0,1.21C35.23,60.62,36,61.34,36.86,62.15ZM25.59,66.39l4.52,2.2c.18.09.37.28.53.25.37,0,.85-.1,1-.35.84-1,1.6-2.15,2.38-3.25.3-.42.57-.85.86-1.28l-.29-.23a5.49,5.49,0,0,0-.61.57c-.79,1.09-1.63,2.15-2.33,3.29A1,1,0,0,1,30.2,68c-1-.45-1.95-.9-2.88-1.42-.25-.15-.57-.73-.48-.85a11.59,11.59,0,0,1,2.4-3c.39-.3,1.61.42,2.39.81.22.11.35.72.26,1a1.9,1.9,0,0,1-.78,1,1.63,1.63,0,0,1-1.26.27c-.43-.21-.68-.77-1.09-1.28l-1,.84c1,.49,1.76.9,2.55,1.21a.92.92,0,0,0,.85-.12c.71-.86,1.35-1.78,2.08-2.78-1.32-.66-2.35-1.25-3.45-1.67a1.46,1.46,0,0,0-1.26.4C27.52,63.68,26.63,65,25.59,66.39Z" transform="translate(-0.17 -0.11)"/><path d="M171.46,207.5c1,.92,2.08,1.84,3.14,2.74.4.35.7.65.13,1.14-1.58,1.35-3.15,2.71-4.67,4.12a.9.9,0,0,1-1.43,0q-2.2-2-4.46-4c-.52-.46-.52-.78,0-1.23a19.73,19.73,0,0,0,2.92-2.93,3.27,3.27,0,0,0-.78.16c-1.08.52-2.15,1-3.2,1.62a.84.84,0,0,1-1.29-.31c-.86-1.24-1.8-2.42-2.63-3.67a1,1,0,0,1,.26-1q2.31-1.21,4.71-2.26a1,1,0,0,1,.91.33c.68.82,1.26,1.72,1.92,2.56.37.46.36.74-.2,1-1,.48-2.07,1-3.11,1.5-.77.38-1.23-.14-1.56-.67a11.31,11.31,0,0,1-.73-1.75,8.14,8.14,0,0,1,2.44-.87c.65,0,.89.92.7,2,1.28-.38,1.28-.41.58-1.48-1-1.6-1-1.66-2.68-.81l-2.22,1.12a2.22,2.22,0,0,0,.13.44c.82,1,1.64,2,2.47,3,1.64-.78,3.29-1.53,4.91-2.35a.92.92,0,0,0,.16-.87,38.06,38.06,0,0,0-2.49-3.44,1.46,1.46,0,0,0-1.32-.24c-1.63.7-3.2,1.55-4.82,2.29a3.77,3.77,0,0,1-1.13.08l-.11-.41c1-.49,1.93-1,2.91-1.48s2.13-.92,3.13-1.48a1.34,1.34,0,0,1,2.07.57c.46.72,1,1.39,1.49,2.09l.27-.15-1-2.19c1.35-.15,2.63-.61,3.87.42.45-.89.35-1.41-.74-1.39-.84,0-1.68.06-2.52.05a11.93,11.93,0,0,1-1.34-.15c.58-.71,4.55-.88,6.25-.34l-1.39,3.25.33.17a21.77,21.77,0,0,1,1.49-2c.27-.29.87-.63,1.13-.51,2.26,1,4.47,2.07,6.84,3.2-1.42,2-2.72,3.87-4.09,5.7a1.11,1.11,0,0,1-1,.13c-1.14-.48-2.24-1.06-3.35-1.58a8.57,8.57,0,0,0-.85-.3Zm5-2.13c.75-.53.83-.71.28-1.13-1.91-1.46-2.46-1.37-3.84.61-.13.2-.32.36-.45.55-.36.56-.39,1,.33,1.34.9.41,1.76.92,2.68,1.29a1.1,1.1,0,0,0,1-.21c1-1.32,2-2.7,3-4-.11-.16-.14-.25-.2-.28-1.09-.56-2.16-1.16-3.29-1.64-2.37-1-1.68-1.48-3.46.83-.81,1.06-1.51,2.22-2.26,3.33l.31.26a4.85,4.85,0,0,0,.57-.54c.79-1.08,1.6-2.16,2.33-3.28.42-.65.8-.87,1.55-.45s1.82.78,2.7,1.25c.29.15.7.74.63.85-.69,1.07-1.47,2.1-2.26,3.11a.75.75,0,0,1-.68.07c-.84-.36-1.66-.78-2.52-1.19,1.46-2.24,1.51-2.34,2.2-2A7.48,7.48,0,0,1,176.43,205.37ZM168.17,212c.19.5.62.84,1.38.24a6.6,6.6,0,0,0,1.24-1.11,1.06,1.06,0,0,0,0-1c-1.91-2.38-2.43-2.41-4.66-.38-.24.21-.58.36-.71.62s-.2.77,0,.92c1.08,1,2.19,2.05,3.36,3a1.29,1.29,0,0,0,1.22,0,38.35,38.35,0,0,0,3.3-2.93,1.06,1.06,0,0,0,0-1.05c-1.22-1.21-2.5-2.34-3.78-3.48a5.4,5.4,0,0,0-1-.42,4.89,4.89,0,0,0,.49.81c1.12,1,2.22,2,3.4,3,.63.49.64.77,0,1.25a24.89,24.89,0,0,0-2.32,2,.81.81,0,0,1-1.32.06c-.79-.72-1.63-1.4-2.38-2.17a1.09,1.09,0,0,1,0-1c1.23-1.75,2-1.81,3.54-.35.19.18.36.4.69.77Z" transform="translate(-0.17 -0.11)"/><path class="cls-1" d="M116.71,166.08c-1.47,2-2.82,3.84-4.09,5.71-.45.66-.84.84-1.56.48-1.34-.68-2.7-1.34-4.08-1.93-.77-.34-.84-.77-.4-1.39a31.78,31.78,0,0,1,2.21-2.94,1.64,1.64,0,0,1,1.38-.35,9.77,9.77,0,0,1,1.82.87c1.64.79,1.65,1.29,0,2.53-.06-.24-.21-.51-.14-.64.47-.77.15-1.08-.58-1.4-1.67-.72-1.66-.77-2.69.63-.42.57-.8,1.18-1.31,1.92l4.4,2.12,3.86-5.39c-2-1-3.91-1.92-5.86-2.73-.3-.13-1,.3-1.29.66-1.25,1.63-2.41,3.34-3.61,5-.22.3-.5.56-.76.85l-.31-.1c0-.27,0-.61.1-.8,1.47-2.12,3-4.22,4.5-6.29a1.19,1.19,0,0,1,1.06-.4c2.32,1.05,4.59,2.19,6.87,3.3C116.36,165.87,116.5,166,116.71,166.08Z" transform="translate(-0.17 -0.11)"/><path class="cls-1" d="M96.24,176.18c1.49-1.32,2.8-2.53,4.19-3.65a1.25,1.25,0,0,1,1.17.06c1.07.84,2,1.81,3.07,2.67.56.47.54.8,0,1.24-.7.58-1.34,1.26-2.08,1.79a1.29,1.29,0,0,1-1.14.12,7.83,7.83,0,0,1-1.35-1.39,3.76,3.76,0,0,1,.8,0c.42.17,1,.62,1.22.49a6.36,6.36,0,0,0,1.67-1.32c.11-.12,0-.49,0-.73,0-.08-.2-.13-.29-.2-2.82-2.45-3.15-2.4-5.94,1,1.51,1.34,3,2.71,4.55,4a1,1,0,0,0,.94,0c1.55-1.31,3-2.67,4.66-4.1l-6.52-5.79.11-.28c.33.06.75,0,1,.21,2.16,1.86,4.29,3.77,6.59,5.8-.7.66-1.3,1.25-1.93,1.82-1.19,1.06-2.36,2.16-3.61,3.15-.31.24-1.09.38-1.32.18C100.06,179.69,98.23,178,96.24,176.18Z" transform="translate(-0.17 -0.11)"/><path class="cls-1" d="M93,102.52c.64.34,1.26.69,1.9,1,.19.08.57.12.66,0,.71-.9,1.39-1.82,2-2.77,0-.08-.27-.51-.49-.64-.95-.51-1.92-1-2.88-1.46-.75-.39-1.13.14-1.47.61-1,1.41-2,2.85-3.1,4.46,1.41.69,2.77,1.38,4.17,2,2.29,1,2.3,1,3.81-1.1.94-1.33,1.86-2.68,2.83-4a3.46,3.46,0,0,1,.92-.65l.28.35c-1.28,1.84-2.55,3.68-3.84,5.52s-1.39,2-3.52,1c-1.91-.89-3.8-1.81-5.88-2.8,1.12-1.6,2.14-3.09,3.18-4.57,1.46-2.07,1.46-2.07,3.75-1,1,.45,2,.9,2.91,1.37a5.22,5.22,0,0,1,.73.54c-1,1.39-1.95,2.77-3,4.11-.12.15-.67.09-1,0a18.24,18.24,0,0,1-2.34-1.17c-.35-.21-.86-.77-.79-.92A6.87,6.87,0,0,1,93.07,101l.3.27Z" transform="translate(-0.17 -0.11)"/><path class="cls-1" d="M96.35,93.68l6.21-5.49,6.32,5.62c-1.51,1.34-2.88,2.6-4.31,3.79a1.14,1.14,0,0,1-1-.13c-1.24-1-2.43-2.15-3.74-3.33a24.47,24.47,0,0,1,3-2.59c1.08-.66,1.35.63,1.89,1.3-.64-.08-1.37-.39-1.91-.18A7.16,7.16,0,0,0,101,94.12c.93.86,1.75,1.66,2.64,2.38a1,1,0,0,0,.93.07c1-.85,2-1.77,3.13-2.77l-5.12-4.51-5.16,4.5c2.22,2,4.39,3.93,6.55,5.88l-.14.32a2.71,2.71,0,0,1-.95-.28c-2.08-1.8-4.13-3.64-6.19-5.47A3,3,0,0,1,96.35,93.68Z" transform="translate(-0.17 -0.11)"/><path class="cls-1" d="M36.86,62.15c-.89-.81-1.63-1.53-2.42-2.17-.54-.44-.63-.75,0-1.21s1.06-.94,1.68-1.5l1,.82c-.74.3-1.36.53-2,.81a.9.9,0,0,0-.31.42A14.35,14.35,0,0,0,36.49,61a1,1,0,0,0,.93-.1c.63-.47,1.18-1,1.93-1.72-1.1-1-2.12-1.94-3.2-2.81a1,1,0,0,0-1,.12c-1,.82-2,1.71-3.06,2.68l4.49,4.07-.25.33a5,5,0,0,1-.77-.48C34.37,62,33.19,60.87,32,59.83c-.57-.48-.62-.85-.05-1.34C33,57.57,34,56.58,35.14,55.7a1.23,1.23,0,0,1,1.16,0c1.32,1.06,2.57,2.22,4,3.47Z" transform="translate(-0.17 -0.11)"/><path class="cls-1" d="M25.59,66.39c1-1.41,1.93-2.71,2.93-3.93a1.46,1.46,0,0,1,1.26-.4c1.1.42,2.13,1,3.45,1.67-.73,1-1.37,1.92-2.08,2.78a.92.92,0,0,1-.85.12c-.79-.31-1.55-.72-2.55-1.21l1-.84c.41.51.66,1.07,1.09,1.28a1.63,1.63,0,0,0,1.26-.27,1.9,1.9,0,0,0,.78-1c.09-.31,0-.92-.26-1-.78-.39-2-1.11-2.39-.81a11.59,11.59,0,0,0-2.4,3c-.09.12.23.7.48.85.93.52,1.91,1,2.88,1.42a1,1,0,0,0,1.49-.44c.7-1.14,1.54-2.2,2.33-3.29a5.49,5.49,0,0,1,.61-.57l.29.23c-.29.43-.56.86-.86,1.28-.78,1.1-1.54,2.21-2.38,3.25-.19.25-.67.3-1,.35-.16,0-.35-.16-.53-.25Z" transform="translate(-0.17 -0.11)"/><path class="cls-1" d="M176.43,205.37a7.48,7.48,0,0,0-1.42-1.28c-.69-.32-.74-.22-2.2,2,.86.41,1.68.83,2.52,1.19a.75.75,0,0,0,.68-.07c.79-1,1.57-2,2.26-3.11.07-.11-.34-.7-.63-.85-.88-.47-1.84-.77-2.7-1.25s-1.13-.2-1.55.45c-.73,1.12-1.54,2.2-2.33,3.28a4.85,4.85,0,0,1-.57.54l-.31-.26c.75-1.11,1.45-2.27,2.26-3.33,1.78-2.31,1.09-1.85,3.46-.83,1.13.48,2.2,1.08,3.29,1.64.06,0,.09.12.2.28-1,1.33-1.92,2.71-3,4a1.1,1.1,0,0,1-1,.21c-.92-.37-1.78-.88-2.68-1.29-.72-.32-.69-.78-.33-1.34.13-.19.32-.35.45-.55,1.38-2,1.93-2.07,3.84-.61C177.26,204.66,177.18,204.84,176.43,205.37Z" transform="translate(-0.17 -0.11)"/><path class="cls-1" d="M168.17,212l2.36-1.19c-.33-.37-.5-.59-.69-.77-1.57-1.46-2.31-1.4-3.54.35a1.09,1.09,0,0,0,0,1c.75.77,1.59,1.45,2.38,2.17a.81.81,0,0,0,1.32-.06,24.89,24.89,0,0,1,2.32-2c.62-.48.61-.76,0-1.25-1.18-.93-2.28-2-3.4-3a4.89,4.89,0,0,1-.49-.81,5.4,5.4,0,0,1,1,.42c1.28,1.14,2.56,2.27,3.78,3.48a1.06,1.06,0,0,1,0,1.05,38.35,38.35,0,0,1-3.3,2.93,1.29,1.29,0,0,1-1.22,0c-1.17-.93-2.28-1.94-3.36-3-.15-.15-.08-.66,0-.92s.47-.41.71-.62c2.23-2,2.75-2,4.66.38a1.06,1.06,0,0,1,0,1,6.6,6.6,0,0,1-1.24,1.11C168.79,212.84,168.36,212.5,168.17,212Z" transform="translate(-0.17 -0.11)"/></g></g></svg>